
<mxfile host="app.diagrams.net">
  <diagram name="OrganizacaoEventoBPMN" id="0">
    <mxGraphModel dx="1400" dy="800" grid="1" gridSize="10" guides="1" tooltips="1" connect="1" arrows="1" fold="1" page="1" pageScale="1" pageWidth="850" pageHeight="1100" math="0" shadow="0">
      <root>
        <mxCell id="0"/>
        <mxCell id="1" parent="0"/>

        <!-- Pools (Organizador, Convidado, Fornecedor, Sistema, IA) -->
        <mxCell id="pool1" value="Organizador" style="swimlane" vertex="1" parent="1">
          <mxGeometry x="0" y="0" width="1200" height="200" as="geometry"/>
        </mxCell>

        <mxCell id="pool2" value="Convidado" style="swimlane" vertex="1" parent="1">
          <mxGeometry x="0" y="200" width="1200" height="120" as="geometry"/>
        </mxCell>

        <mxCell id="pool3" value="Fornecedor" style="swimlane" vertex="1" parent="1">
          <mxGeometry x="0" y="320" width="1200" height="120" as="geometry"/>
        </mxCell>

        <mxCell id="pool4" value="Sistema" style="swimlane" vertex="1" parent="1">
          <mxGeometry x="0" y="440" width="1200" height="120" as="geometry"/>
        </mxCell>

        <mxCell id="pool5" value="IA" style="swimlane" vertex="1" parent="1">
          <mxGeometry x="0" y="560" width="1200" height="100" as="geometry"/>
        </mxCell>

        <!-- Evento Inicial -->
        <mxCell id="start" value="" style="ellipse;whiteSpace=wrap;html=1;aspect=fixed;shape=startEvent;" vertex="1" parent="pool1">
          <mxGeometry x="40" y="20" width="30" height="30" as="geometry"/>
        </mxCell>

        <!-- Tarefa: Login / Cadastro -->
        <mxCell id="task1" value="Login / Cadastro" style="rounded=1;whiteSpace=wrap;html=1;" vertex="1" parent="pool1">
          <mxGeometry x="100" y="10" width="120" height="40" as="geometry"/>
        </mxCell>

        <!-- Tarefa: Criar Evento -->
        <mxCell id="task2" value="Criar Evento" style="rounded=1;whiteSpace=wrap;html=1;" vertex="1" parent="pool1">
          <mxGeometry x="250" y="10" width="120" height="40" as="geometry"/>
        </mxCell>

        <!-- Evento Final -->
        <mxCell id="end" value="" style="ellipse;whiteSpace=wrap;html=1;aspect=fixed;shape=endEvent;" vertex="1" parent="pool1">
          <mxGeometry x="1100" y="20" width="30" height="30" as="geometry"/>
        </mxCell>

        <!-- ConexÃµes -->
        <mxCell id="edge1" style="edgeStyle=orthogonalEdgeStyle;rounded=0;" edge="1" source="start" target="task1" parent="1">
          <mxGeometry relative="1" as="geometry"/>
        </mxCell>
        <mxCell id="edge2" style="edgeStyle=orthogonalEdgeStyle;rounded=0;" edge="1" source="task1" target="task2" parent="1">
          <mxGeometry relative="1" as="geometry"/>
        </mxCell>
        <mxCell id="edge3" style="edgeStyle=orthogonalEdgeStyle;rounded=0;" edge="1" source="task2" target="end" parent="1">
          <mxGeometry relative="1" as="geometry"/>
        </mxCell>

      </root>
    </mxGraphModel>
  </diagram>
</mxfile>
